<svg id="Layer_1" data-name="Layer 1" xmlns="http://www.w3.org/2000/svg" viewBox="0 0 440 440"><path d="M75.468 73.239 C 72.958 75.271,73.121 79.562,75.794 81.862 L 77.815 83.600 220.089 83.600 C 326.849 83.600,362.763 83.387,363.965 82.747 C 367.641 80.789,368.440 77.053,365.880 73.799 L 364.360 71.867 220.761 71.867 C 81.551 71.867,77.111 71.909,75.468 73.239 M74.120 115.599 C 73.284 116.662,72.606 118.394,72.614 119.449 C 72.621 120.504,82.135 182.879,93.755 258.062 C 113.623 386.608,114.982 394.837,116.556 396.112 C 118.165 397.415,122.114 397.467,219.981 397.467 L 321.733 397.467 323.589 395.611 C 324.610 394.590,325.638 392.692,325.874 391.394 C 327.562 382.106,367.400 121.267,367.400 119.504 C 367.400 118.106,366.724 116.591,365.600 115.467 L 363.800 113.667 219.720 113.667 L 75.640 113.667 74.120 115.599 M354.200 126.698 C 354.200 127.412,345.290 185.898,334.400 256.667 C 323.510 327.435,314.600 385.426,314.600 385.535 C 314.600 385.644,272.102 385.733,220.160 385.733 L 125.721 385.733 105.734 256.117 C 94.741 184.828,85.759 126.252,85.774 125.950 C 85.788 125.647,146.190 125.400,220.000 125.400 C 347.907 125.400,354.200 125.461,354.200 126.698 " stroke="none" fill="black" fill-rule="evenodd"></path></svg>