<svg id="Layer_1" data-name="Layer 1" xmlns="http://www.w3.org/2000/svg" viewBox="0 0 440 440"><path d="M293.627 120.560 L 291.133 123.053 291.133 131.927 L 291.133 140.800 189.750 140.816 C 92.942 140.831,88.234 140.893,85.433 142.179 C 83.820 142.920,81.891 144.211,81.147 145.048 C 77.772 148.844,77.799 148.233,77.770 219.633 C 77.751 263.879,78.002 288.039,78.499 289.827 C 79.550 293.612,82.348 296.683,86.004 298.064 C 88.803 299.122,101.717 299.215,220.787 299.034 L 352.474 298.833 355.181 297.000 C 356.670 295.992,358.544 293.825,359.344 292.185 C 360.765 289.275,360.800 287.541,360.800 220.000 C 360.800 152.459,360.765 150.725,359.344 147.815 C 357.723 144.494,354.260 141.802,350.690 141.088 L 348.333 140.617 348.333 132.985 C 348.333 128.048,347.965 124.472,347.291 122.858 C 345.354 118.222,344.437 118.067,318.963 118.067 L 296.120 118.067 293.627 120.560 M335.867 133.833 L 335.867 137.867 319.367 137.867 L 302.867 137.867 302.867 133.833 L 302.867 129.800 319.367 129.800 L 335.867 129.800 335.867 133.833 M348.700 220.000 L 348.700 287.100 219.450 287.285 L 90.200 287.471 90.200 220.000 L 90.200 152.529 219.450 152.715 L 348.700 152.900 348.700 220.000 M209.096 171.263 C 203.202 172.542,196.172 175.816,190.260 180.035 C 174.413 191.343,166.679 212.859,171.577 232.010 C 177.281 254.311,197.178 269.867,220.000 269.867 C 247.414 269.867,269.867 247.414,269.867 220.000 C 269.867 192.373,247.287 169.990,219.633 170.204 C 216.407 170.229,211.665 170.706,209.096 171.263 M231.208 183.815 C 242.910 187.247,252.817 197.308,256.369 209.367 C 258.074 215.158,258.074 224.842,256.369 230.633 C 252.809 242.721,243.481 252.186,231.000 256.377 C 228.204 257.316,224.829 257.732,220.000 257.732 C 209.266 257.732,200.724 254.225,193.249 246.751 C 185.911 239.412,182.335 230.649,182.335 220.000 C 182.335 200.677,195.812 185.250,215.233 182.340 C 218.706 181.820,227.022 182.588,231.208 183.815 " stroke="none" fill-rule="evenodd" fill="black"></path></svg>