<svg id="Layer_1" data-name="Layer 1" xmlns="http://www.w3.org/2000/svg" viewBox="0 0 440 440"><path d="M288.906 144.623 C 287.913 144.968,286.584 145.981,285.954 146.875 C 285.324 147.769,270.176 173.085,252.293 203.133 C 234.410 233.182,219.493 258.085,219.145 258.474 C 218.763 258.901,209.595 250.280,195.946 236.657 C 175.590 216.340,173.145 214.133,170.989 214.133 C 167.778 214.133,165.000 216.918,165.000 220.139 C 165.000 222.323,167.408 224.952,191.228 248.772 C 214.515 272.058,217.713 275.000,219.747 275.000 C 221.007 275.000,222.718 274.422,223.549 273.717 C 224.781 272.670,292.163 160.494,295.898 153.270 C 297.374 150.415,297.286 148.695,295.550 146.488 C 293.892 144.381,291.521 143.715,288.906 144.623 " stroke="none" fill="black" fill-rule="evenodd"></path></svg>