<svg id="Layer_1" data-name="Layer 1" xmlns="http://www.w3.org/2000/svg" viewBox="0 0 440 440"><path d="M208.267 20.957 C 170.360 24.133,139.004 34.565,110.733 53.406 C 97.016 62.548,89.963 68.332,78.450 79.884 C 47.779 110.657,28.806 149.170,22.250 193.967 C 20.455 206.225,20.455 233.775,22.250 246.033 C 28.882 291.348,47.737 329.350,79.193 360.807 C 110.650 392.263,148.652 411.118,193.967 417.750 C 206.225 419.545,233.775 419.545,246.033 417.750 C 277.556 413.136,304.977 402.801,330.000 386.102 C 342.715 377.617,350.129 371.542,360.835 360.835 C 392.145 329.526,411.137 291.218,417.750 246.033 C 418.693 239.595,419.038 232.608,419.038 220.000 C 419.038 201.494,418.146 192.792,414.600 176.733 C 404.060 128.989,375.740 86.336,335.483 57.572 C 309.070 38.700,278.350 26.685,245.360 22.324 C 237.312 21.260,214.628 20.424,208.267 20.957 M248.233 34.746 C 275.688 39.102,301.551 49.182,323.943 64.252 C 335.831 72.254,342.629 77.833,352.397 87.602 C 380.813 116.022,398.977 151.909,405.303 192.133 C 406.338 198.708,406.630 204.849,406.630 220.000 C 406.630 235.151,406.338 241.292,405.303 247.867 C 400.891 275.919,390.948 301.368,375.362 324.500 C 330.614 390.913,249.823 421.403,172.205 401.173 C 115.021 386.268,67.795 344.251,45.598 288.530 C 37.438 268.047,33.800 249.309,33.218 224.767 C 32.407 190.561,38.269 164.323,53.372 134.567 C 70.930 99.973,99.910 70.996,134.567 53.380 C 156.913 42.021,174.828 36.759,202.400 33.456 C 208.604 32.713,241.201 33.630,248.233 34.746 M288.906 144.623 C 287.913 144.968,286.584 145.981,285.954 146.875 C 285.324 147.769,270.176 173.085,252.293 203.133 C 234.410 233.182,219.493 258.085,219.145 258.474 C 218.763 258.901,209.595 250.280,195.946 236.657 C 175.590 216.340,173.145 214.133,170.989 214.133 C 167.778 214.133,165.000 216.918,165.000 220.139 C 165.000 222.323,167.408 224.952,191.228 248.772 C 214.515 272.058,217.713 275.000,219.747 275.000 C 221.007 275.000,222.718 274.422,223.549 273.717 C 224.781 272.670,292.163 160.494,295.898 153.270 C 297.374 150.415,297.286 148.695,295.550 146.488 C 293.892 144.381,291.521 143.715,288.906 144.623 " stroke="none" fill-rule="evenodd" fill="black"></path></svg>