<svg id="Layer_1" data-name="Layer 1" xmlns="http://www.w3.org/2000/svg" viewBox="0 0 440 440"><path d="M75.133 166.800 C 72.611 169.322,72.702 172.937,75.350 175.406 C 76.459 176.441,108.934 199.438,147.517 226.510 C 207.158 268.360,218.033 275.728,220.117 275.696 C 222.143 275.665,235.061 266.937,294.781 225.251 C 358.932 180.471,367.071 174.577,367.680 172.453 C 368.240 170.500,368.096 169.699,366.891 168.081 C 364.997 165.535,362.136 164.485,359.913 165.519 C 358.989 165.948,327.213 187.944,289.300 214.399 C 251.387 240.854,220.202 262.497,220.000 262.496 C 219.798 262.495,190.263 241.839,154.367 216.594 C 118.470 191.350,87.151 169.414,84.770 167.847 C 79.737 164.538,77.625 164.309,75.133 166.800 " stroke="none" fill="black" fill-rule="evenodd"></path></svg>