<svg id="Layer_1" data-name="Layer 1" xmlns="http://www.w3.org/2000/svg" viewBox="0 0 440 440"><path d="M147.033 214.858 C 107.910 242.321,75.323 265.474,74.617 266.310 C 72.775 268.490,72.972 272.205,75.031 274.139 C 78.290 277.201,80.241 276.447,93.980 266.816 C 100.976 261.912,132.002 240.132,162.927 218.416 C 193.852 196.701,219.538 178.933,220.007 178.933 C 220.476 178.933,251.934 200.618,289.913 227.122 C 343.755 264.695,359.538 275.371,361.559 275.584 C 364.770 275.922,367.218 274.087,367.837 270.877 C 368.195 269.022,367.882 268.157,366.190 266.331 C 362.535 262.386,222.809 165.464,220.367 165.180 C 218.466 164.959,208.473 171.729,147.033 214.858 " stroke="none" fill="black" fill-rule="evenodd"></path></svg>