<svg id="Layer_1" data-name="Layer 1" xmlns="http://www.w3.org/2000/svg" viewBox="0 0 440 440"><path d="M218.533 164.972 C 163.478 192.368,117.691 215.496,116.783 216.368 C 114.986 218.095,114.618 221.334,115.939 223.801 C 117.045 225.868,317.666 325.844,320.708 325.844 C 322.183 325.844,323.460 325.192,324.616 323.848 C 326.637 321.498,326.799 319.258,325.120 316.861 C 324.306 315.699,292.590 299.521,228.918 267.790 L 133.930 220.451 229.322 173.020 C 292.604 141.555,324.986 125.080,325.524 124.076 C 327.603 120.190,324.853 115.118,320.683 115.148 C 319.463 115.157,278.112 135.326,218.533 164.972 " stroke="none" fill="black" fill-rule="evenodd"></path></svg>