<svg id="Layer_1" data-name="Layer 1" xmlns="http://www.w3.org/2000/svg" viewBox="0 0 440 440"><path d="M208.267 20.957 C 170.360 24.133,139.004 34.565,110.733 53.406 C 97.016 62.548,89.963 68.332,78.450 79.884 C 47.779 110.657,28.806 149.170,22.250 193.967 C 20.455 206.225,20.455 233.775,22.250 246.033 C 28.882 291.348,47.737 329.350,79.193 360.807 C 110.650 392.263,148.652 411.118,193.967 417.750 C 206.225 419.545,233.775 419.545,246.033 417.750 C 277.556 413.136,304.977 402.801,330.000 386.102 C 342.715 377.617,350.129 371.542,360.835 360.835 C 392.145 329.526,411.137 291.218,417.750 246.033 C 418.693 239.595,419.038 232.608,419.038 220.000 C 419.038 201.494,418.146 192.792,414.600 176.733 C 404.060 128.989,375.740 86.336,335.483 57.572 C 309.070 38.700,278.350 26.685,245.360 22.324 C 237.312 21.260,214.628 20.424,208.267 20.957 M248.233 34.746 C 275.688 39.102,301.551 49.182,323.943 64.252 C 335.831 72.254,342.629 77.833,352.397 87.602 C 380.813 116.022,398.977 151.909,405.303 192.133 C 406.338 198.708,406.630 204.849,406.630 220.000 C 406.630 235.151,406.338 241.292,405.303 247.867 C 400.891 275.919,390.948 301.368,375.362 324.500 C 330.614 390.913,249.823 421.403,172.205 401.173 C 115.021 386.268,67.795 344.251,45.598 288.530 C 37.438 268.047,33.800 249.309,33.218 224.767 C 32.407 190.561,38.269 164.323,53.372 134.567 C 70.930 99.973,99.910 70.996,134.567 53.380 C 156.913 42.021,174.828 36.759,202.400 33.456 C 208.604 32.713,241.201 33.630,248.233 34.746 M217.867 72.665 C 214.005 74.211,214.182 70.564,214.157 149.236 L 214.133 222.572 250.617 258.957 C 270.683 278.969,287.668 295.536,288.363 295.774 C 292.279 297.111,297.129 291.926,295.585 288.052 C 295.216 287.125,279.378 270.858,260.390 251.903 L 225.867 217.439 225.867 146.625 C 225.867 76.373,225.855 75.797,224.371 74.205 C 223.549 73.322,222.586 72.600,222.231 72.600 C 221.877 72.600,221.147 72.456,220.610 72.279 C 220.073 72.103,218.838 72.277,217.867 72.665 " stroke="none" fill-rule="evenodd" fill="black"></path></svg>