<svg id="Layer_1" data-name="Layer 1" xmlns="http://www.w3.org/2000/svg" viewBox="0 0 440 440"><path d="M127.542 45.465 C 120.804 46.624,114.621 51.165,111.288 57.403 L 109.633 60.500 109.442 219.633 L 109.250 378.767 111.489 383.319 C 114.150 388.730,118.249 392.481,123.748 394.538 C 127.663 396.003,128.912 396.019,221.707 395.828 L 315.700 395.633 319.396 393.682 C 324.145 391.175,328.662 386.255,330.436 381.657 C 331.795 378.133,331.833 373.673,331.833 220.000 L 331.833 61.967 329.787 57.800 C 327.379 52.897,323.913 49.640,318.300 47.007 L 314.233 45.100 222.567 44.993 C 172.150 44.935,129.389 45.147,127.542 45.465 M264.000 87.036 C 264.000 116.660,264.011 116.884,265.594 118.569 C 267.151 120.226,267.518 120.267,280.867 120.267 L 294.544 120.267 296.322 118.375 L 298.100 116.483 298.307 86.842 L 298.514 57.200 305.494 57.200 C 313.453 57.200,316.052 58.138,318.296 61.819 C 319.704 64.128,319.728 66.737,319.728 220.367 C 319.728 373.900,319.703 376.607,318.299 378.910 C 317.513 380.199,315.961 381.849,314.851 382.577 C 312.936 383.832,308.109 383.910,221.494 384.094 L 130.156 384.289 126.916 382.628 C 121.032 379.612,121.000 379.441,121.000 351.095 L 121.000 326.333 124.324 326.333 C 131.341 326.333,135.540 322.360,133.350 317.793 C 132.038 315.058,129.504 313.891,124.850 313.877 L 121.000 313.867 121.000 269.867 L 121.000 225.867 125.583 225.843 C 130.586 225.818,132.269 224.983,133.420 221.957 C 134.282 219.689,133.385 216.625,131.421 215.133 C 130.712 214.594,128.176 214.170,125.583 214.157 L 121.000 214.133 121.000 170.500 L 121.000 126.867 125.628 126.867 C 129.264 126.867,130.599 126.548,131.853 125.380 C 133.941 123.434,134.548 120.823,133.409 118.685 C 131.904 115.859,130.400 115.181,125.583 115.157 L 121.000 115.133 121.000 90.164 C 121.000 63.449,121.049 63.054,124.780 59.677 C 125.726 58.821,126.995 57.939,127.600 57.718 C 128.205 57.497,159.142 57.290,196.350 57.258 L 264.000 57.200 264.000 87.036 M286.000 83.233 L 286.000 108.533 280.867 108.533 L 275.733 108.533 275.733 83.233 L 275.733 57.933 280.867 57.933 L 286.000 57.933 286.000 83.233 " stroke="none" fill-rule="evenodd" fill="black"></path></svg>