<svg id="Layer_1" data-name="Layer 1" xmlns="http://www.w3.org/2000/svg" viewBox="0 0 440 440"><path d="M213.033 47.378 C 201.207 49.122,192.702 52.289,183.631 58.325 C 149.305 81.165,144.936 130.063,174.651 158.848 C 184.079 167.981,194.388 173.448,207.154 176.082 C 228.994 180.590,251.398 173.484,267.072 157.079 C 291.069 131.961,291.307 93.299,267.621 67.937 C 258.971 58.674,247.621 51.955,235.767 49.081 C 230.009 47.685,217.370 46.738,213.033 47.378 M232.006 60.493 C 246.821 63.632,260.728 74.781,267.688 89.100 C 271.463 96.867,272.776 102.829,272.789 112.266 C 272.811 128.100,266.914 141.391,255.138 152.048 C 235.715 169.625,204.285 169.625,184.862 152.048 C 173.086 141.391,167.189 128.100,167.211 112.266 C 167.224 102.829,168.537 96.867,172.312 89.100 C 179.190 74.950,193.134 63.677,207.657 60.524 C 213.828 59.185,225.758 59.169,232.006 60.493 M201.300 220.824 C 146.895 224.985,98.933 250.384,84.224 282.824 C 74.330 304.645,78.995 328.205,97.162 348.162 C 109.599 361.825,129.057 373.526,152.167 381.238 C 195.391 395.664,244.609 395.664,287.833 381.238 C 333.190 366.101,360.800 337.555,360.800 305.800 C 360.800 289.115,353.863 274.641,338.938 260.185 C 309.591 231.761,256.565 216.597,201.300 220.824 M241.633 233.230 C 270.594 235.941,297.131 244.659,317.539 258.168 C 325.741 263.596,338.011 275.621,341.627 281.772 C 353.943 302.728,350.445 323.634,331.461 342.518 C 316.882 357.021,292.518 369.134,266.116 375.005 C 249.423 378.718,241.666 379.469,220.000 379.469 C 198.334 379.469,190.577 378.718,173.884 375.005 C 121.683 363.396,86.661 331.590,91.538 300.222 C 93.300 288.887,97.934 280.515,108.167 270.181 C 135.819 242.256,186.915 228.110,241.633 233.230 " stroke="none" fill-rule="evenodd" fill="black"></path></svg>